<?xml version="1.0" encoding="UTF-8" standalone="no"?>
<svg width="69px" height="48px" viewBox="0 0 69 48" version="1.1" xmlns="http://www.w3.org/2000/svg" xmlns:xlink="http://www.w3.org/1999/xlink">
    <!-- Generator: Sketch 3.6.1 (26313) - http://www.bohemiancoding.com/sketch -->
    <title>Fill 18</title>
    <desc>Created with Sketch.</desc>
    <defs></defs>
    <g id="Page-1" stroke="none" stroke-width="1" fill="none" fill-rule="evenodd">
        <g id="Sub-Navigation-Desktop" transform="translate(-59.000000, -17.000000)" fill="#019875">
            <g id="Header">
                <path d="M120.109903,49.1423346 C119.286038,48.5404832 117.184201,48.8959585 116.972586,47.7399413 C116.910081,47.3945812 117.084042,47.0535561 117.255743,46.8685934 C117.95987,46.102732 119.484097,46.4401445 120.109903,47.3403929 C120.398332,47.755114 120.747006,48.6423572 120.109903,49.1423346 L120.109903,49.1423346 Z M115.719467,45.8007225 C115.384348,45.5211109 115.121524,45.3137503 115.163697,44.7986001 C115.269127,43.5342064 117.6368,43.812373 118.786748,44.1953037 C118.702403,44.7371867 117.677466,45.662723 117.044129,45.8007225 C116.66006,45.8830887 116.222522,45.7400316 115.719467,45.8007225 L115.719467,45.8007225 Z M116.000365,51.9471212 C115.430286,51.9868593 115.540235,51.3373222 115.023624,51.2152179 C114.25398,51.0251976 113.390954,50.8048318 113.422584,49.8778505 C113.446682,49.1669 114.310461,48.8085347 115.095167,49.0065026 C116.039525,49.2478212 116.668343,51.0121924 116.000365,51.9471212 L116.000365,51.9471212 Z M110.149713,50.5468955 C110.252131,50.0693159 110.643731,49.738406 111.542151,49.8778505 C112.314055,50.479702 112.666495,51.8177918 112.864554,52.7498307 C111.561731,53.0222172 109.887642,51.7296455 110.149713,50.5468955 L110.149713,50.5468955 Z M109.103689,48.1380447 C108.752756,48.0831339 108.33028,47.7645067 108.268528,47.3403929 C108.172134,46.6619553 109.693348,45.4011741 110.357562,44.9987356 C110.441153,44.9496049 110.615867,45.0363062 110.70473,44.9987356 C111.202514,46.3816211 110.457721,48.3584105 109.103689,48.1380447 L109.103689,48.1380447 Z M108.962864,52.6132761 C108.361909,52.6616844 108.353625,52.1342515 108.128455,51.8141793 C107.295553,51.6212689 106.167444,51.2267781 106.179493,50.4103409 C106.191542,49.7160081 107.418304,49.3272974 108.197738,49.6769925 C109.126282,50.0924362 109.331872,51.2433958 108.962864,52.6132761 L108.962864,52.6132761 Z M107.641215,43.9966132 C107.620882,43.6288553 108.032815,43.0898623 108.338564,42.9272974 C108.669164,42.7488372 109.154899,42.8203658 109.523906,42.6614134 C110.04127,42.43021 110.096997,42.0313841 110.56767,41.8579815 C111.055664,41.8962746 110.800371,42.6108377 110.636953,42.7929104 C110.725816,43.3037254 110.429104,43.4373899 110.498387,43.9308648 C110.130133,44.9300971 107.712757,45.193091 107.641215,43.9966132 L107.641215,43.9966132 Z M104.646229,44.1953037 C104.348011,42.5848273 106.305257,42.5877173 106.737523,41.456988 C108.421402,42.5732671 106.431021,45.8180628 104.646229,44.1953037 L104.646229,44.1953037 Z M103.881104,46.0001355 C103.767389,45.1331226 104.75166,44.7877625 105.692253,45.0666516 C106.518378,45.3086927 107.180332,46.2941973 107.364083,47.0680063 C106.147111,47.4039738 104.012139,47.0029804 103.881104,46.0001355 L103.881104,46.0001355 Z M110.429104,38.7186724 C109.02537,38.6839919 109.183516,36.8661549 110.498387,36.6457891 C110.735606,36.6038835 111.013492,36.7346579 111.26276,36.7137051 C111.804975,36.6652969 112.351709,36.062723 112.727494,36.4442086 C112.713938,36.5251298 112.742555,36.5663129 112.796024,36.5793181 C112.424004,37.5351998 111.604657,38.7432378 110.429104,38.7186724 L110.429104,38.7186724 Z M108.197738,36.2447957 C107.1359,35.9232784 107.708239,34.3763829 108.687238,34.1733574 C109.921531,33.9168661 111.071479,34.8084443 111.26276,35.7108602 C110.940443,35.928336 110.331204,35.6487243 110.008134,35.7108602 C109.536708,35.8026191 109.194059,36.5417476 108.197738,36.2447957 L108.197738,36.2447957 Z M106.597451,31.7681192 C107.013902,31.1041319 108.028296,30.6865207 108.756521,30.6980808 C108.843878,31.1149695 108.513277,31.1315873 108.4086,31.3649582 C108.364168,32.4494468 108.65109,34.1097765 107.43186,34.1054414 C106.518378,34.1032739 106.062013,32.6185143 106.597451,31.7681192 L106.597451,31.7681192 Z M105.205012,31.6994807 C104.611588,31.6590201 104.195136,31.1286972 104.226766,30.5680289 C104.30358,29.3375931 106.59971,29.3231429 107.710498,29.628765 C107.299318,30.3230978 106.386589,31.787627 105.205012,31.6994807 L105.205012,31.6994807 Z M102.210027,33.705893 C102.161077,32.3150598 104.275716,32.7738541 105.55218,32.5036351 C106.192296,34.0079025 102.274038,35.6263265 102.210027,33.705893 L102.210027,33.705893 Z M103.185261,26.4208173 C102.582046,26.3789117 102.00519,25.4468729 101.999165,24.951953 C101.990881,24.071935 103.503059,22.7641906 104.368344,23.0792052 C103.629576,23.9346579 104.931645,26.5537593 103.185261,26.4208173 L103.185261,26.4208173 Z M100.327335,27.7567397 C98.1464256,27.2437571 99.8965755,25.1369158 100.398878,24.1514112 L100.467408,24.1514112 C101.671577,24.7706028 101.804118,27.3593588 100.327335,27.7567397 L100.327335,27.7567397 Z M98.308337,25.084895 C97.7066289,24.980131 97.1915245,24.2568977 97.3323498,23.4151727 C97.4558544,22.6825469 98.4581993,21.7086024 98.8656137,21.6096184 C99.055389,21.5626552 99.2014858,21.6096184 99.3528542,21.679702 C99.1126228,22.89352 100.109696,25.3948521 98.308337,25.084895 L98.308337,25.084895 Z M96.9166516,27.5558817 C96.0430828,27.9337548 94.5836204,27.2249718 94.6860388,26.2199594 C94.7613465,25.5090088 95.5498176,25.3204335 96.2900919,25.4858885 C96.6319886,25.5610296 96.8601708,25.9100023 97.1245007,25.9547979 C97.747295,26.0588395 98.0778956,25.6708512 98.4499154,25.9547979 C98.3655709,26.4063671 97.4159413,27.342741 96.9166516,27.5558817 L96.9166516,27.5558817 Z M96.2177965,29.8281779 C96.0558851,31.0701739 93.9276907,30.5470761 93.7108047,29.4965455 C93.6008555,28.4987582 93.9231722,27.9164145 94.1987983,27.2892752 C94.2530198,27.2329194 94.3900797,27.2502597 94.4066474,27.1563333 C94.4638812,27.1910138 94.520362,27.2249718 94.6175088,27.2228042 C94.8743079,27.6057349 94.8170741,27.8268232 95.0339602,28.1577331 C95.4308315,28.7603071 96.3300049,28.9756153 96.2177965,29.8281779 L96.2177965,29.8281779 Z M95.8005921,21.6096184 L96.2900919,21.6096184 C96.5002002,22.150779 96.822517,23.4946489 96.3578688,24.1514112 C96.2019819,24.3710544 95.5234599,24.8298487 95.3133516,24.8854821 C94.727458,25.0379318 93.9660976,24.7250847 93.8508769,24.2836306 C93.4253886,22.661594 95.8578259,23.0705351 95.8005921,21.6096184 L95.8005921,21.6096184 Z M105.898596,22.8162113 C106.891151,23.0857078 107.1359,24.509054 108.128455,24.7489275 C107.48834,26.4713931 104.756179,25.4150824 104.646229,24.0141341 C104.576193,23.1066606 105.220074,22.626191 105.898596,22.8162113 L105.898596,22.8162113 Z M108.338564,26.8247008 C108.809237,27.4691804 108.846137,28.1924136 108.617955,29.0948295 C108.05616,29.1316776 108.118665,28.5883495 107.710498,28.4236171 C107.437884,28.3166855 107.149456,28.454685 106.806806,28.3607586 C106.300739,28.2148115 105.696771,27.6418605 105.692253,27.2228042 C105.671167,26.0003161 107.678116,25.9179499 108.338564,26.8247008 L108.338564,26.8247008 Z M111.26276,31.4986227 C111.580558,31.4689998 111.533114,31.0911267 111.822296,31.0311583 C112.160427,30.8180176 112.414967,31.2601942 112.586669,31.4350418 C112.692852,32.7644615 111.675446,34.0483631 110.357562,33.9103635 C108.48692,33.704448 109.560054,31.3454504 111.26276,31.4986227 L111.26276,31.4986227 Z M109.523906,29.027636 C109.714435,28.1143825 111.179922,26.9323549 111.75,27.6266877 C111.316228,28.4778054 111.82832,30.2407315 110.847062,30.5680289 C110.310871,30.5875367 109.793508,30.5897042 109.59093,30.2970874 C109.544239,29.8686385 109.429019,29.4727026 109.523906,29.027636 L109.523906,29.027636 Z M113.97986,28.8282231 C114.610185,28.9532174 114.848911,29.5818018 115.372299,30.0297584 C115.73001,30.338993 116.110314,30.3491082 116.069648,30.6980808 C115.989822,31.3974712 114.669678,30.9870851 113.840541,31.0990743 C112.649174,31.0506661 111.981195,28.4322872 113.97986,28.8282231 L113.97986,28.8282231 Z M113.284017,38.9195304 C112.769666,38.5134793 113.105538,37.4672838 113.633445,37.1146986 C113.846566,36.9716415 114.114661,36.9947618 114.259252,36.9131181 C114.641061,36.6970874 114.720134,36.2758636 115.095167,35.9781892 C116.885983,37.0641228 114.750258,40.0856627 113.284017,38.9195304 L113.284017,38.9195304 Z M114.467101,47.0680063 C114.475385,48.5245879 111.908147,50.5649582 111.054158,48.4725672 C111.338068,47.4104764 113.430867,46.978415 114.467101,47.0680063 L114.467101,47.0680063 Z M114.119932,42.8593814 C114.740468,44.2097539 113.955762,45.8390156 112.796024,46.1345225 C112.41572,45.8960939 111.85995,45.764597 111.75,45.3997291 C111.516547,44.6121924 112.434547,44.4257846 112.586669,43.7972003 C113.295314,43.6736509 113.358572,42.9338 114.119932,42.8593814 L114.119932,42.8593814 Z M112.864554,41.2568526 C111.712347,41.2864755 110.61888,40.9779634 110.56767,40.1210657 C110.523992,39.4426281 111.268032,38.9195304 112.099428,38.9831113 C113.01291,39.0575299 113.595791,40.0018514 113.97986,40.5220592 C114.331547,41.7683902 113.23808,42.1368706 112.864554,41.2568526 L112.864554,41.2568526 Z M117.255743,38.3162339 C117.982462,38.791646 119.322938,39.3400316 118.715959,40.6564462 C117.593875,40.1824791 116.279756,40.8804245 115.306028,40.1210657 C115.01534,38.8776247 115.951415,38.252653 117.255743,38.3162339 L117.255743,38.3162339 Z M99.0071921,31.6358998 C99.4484949,31.2305712 100.251275,31.385911 100.605221,31.7681192 C100.868797,33.2940619 99.8928101,34.551953 98.3783732,34.3727704 C98.5304946,33.406051 98.5056431,32.2680966 99.0071921,31.6358998 L99.0071921,31.6358998 Z M92.6685467,24.3501016 C92.6406829,24.7395349 92.8997412,24.9324452 92.8756428,25.2850305 C92.7709651,26.8593814 90.1675795,26.9157372 90.7150661,24.4830436 C91.2881574,23.8082186 91.982494,23.2489953 93.0149619,23.0134568 C93.3523402,23.4736961 92.6949044,23.9346579 92.6685467,24.3501016 L92.6685467,24.3501016 Z M90.0877533,24.0834951 C89.504119,24.1145631 89.267653,23.6095281 88.8331278,23.3487017 C88.8496955,22.4202755 88.0152867,22.3061188 87.5114784,21.8791149 C88.0152867,21.2996613 89.1155315,21.2693159 89.8814104,21.4795665 C91.2166151,21.8335967 91.4304888,24.0105216 90.0877533,24.0834951 L90.0877533,24.0834951 Z M89.1840615,34.4399639 C88.6350687,34.1422895 88.1410504,33.739851 88.1395443,33.1705125 C88.1395443,32.8128697 88.5386749,32.6083992 88.6267848,32.2370287 C88.7736347,31.6120569 88.4151703,31.385911 88.4889718,30.8331903 C90.2594548,30.5701964 91.284392,33.9948973 89.1840615,34.4399639 L89.1840615,34.4399639 Z M87.5114784,29.763152 C87.1590386,29.8382931 86.8683511,30.3621133 86.4669613,30.0297584 C86.3155929,28.891804 87.4994292,27.175841 88.8331278,27.4923007 C89.1539384,27.5681644 89.5884636,28.0276812 89.602019,28.4236171 C89.621599,29.0037932 88.8316216,29.5767442 88.1395443,29.763152 C87.9324482,29.8180628 87.703513,29.7226914 87.5114784,29.763152 L87.5114784,29.763152 Z M86.2591121,33.1040415 C84.2852985,33.6560397 83.0223891,31.5441409 84.9359566,31.1655453 C85.7387362,31.0065929 86.7704511,31.6864755 87.2343463,30.9675773 L87.4429485,30.9675773 C87.7976475,31.9025062 86.8005742,32.593949 86.2591121,33.1040415 L86.2591121,33.1040415 Z M81.801652,30.6980808 C81.5425937,29.5037706 82.7979723,29.6143147 83.4026927,28.9626101 C83.6956395,28.6461504 83.5103827,28.2617747 83.9607225,28.1577331 C84.5353199,28.1873561 84.4720615,29.4047866 84.5172461,30.1627004 C84.3327423,31.1250847 82.1006234,32.087469 81.801652,30.6980808 L81.801652,30.6980808 Z M79.7111115,27.0913073 C79.6930376,26.4598329 80.8926886,24.9649582 81.4514714,25.019869 C81.684172,25.2980357 81.3437814,25.6108828 81.3836945,25.9547979 C81.4394222,26.4417702 81.8927743,26.6520208 82.0802903,27.0219463 C82.4553224,29.6092572 79.745753,28.3896591 79.7111115,27.0913073 L79.7111115,27.0913073 Z M78.5272751,30.1627004 C78.4030175,29.9827952 78.4263629,29.6482727 78.2493899,29.4965455 C77.9993685,29.2812373 77.6258425,29.5420637 77.483511,29.1613005 C77.4714618,28.1851885 78.7682596,28.2083089 79.7111115,28.3607586 C80.1109951,28.719124 80.955947,29.1042222 81.0350201,29.8281779 C81.221783,31.5860465 79.155341,31.0781215 78.5272751,30.1627004 L78.5272751,30.1627004 Z M79.6418284,35.7108602 C79.3270424,35.8112892 78.7012358,35.8112892 78.3872029,35.7108602 C77.6815701,35.0923911 77.198095,32.8648905 78.3872029,32.6365771 C79.0807864,33.3410251 80.5191626,34.5375028 79.6418284,35.7108602 L79.6418284,35.7108602 Z M77.1348366,26.2199594 C77.1212812,25.9222849 77.3396734,25.6354482 77.3419326,25.3529465 C77.3539818,24.7041319 76.7884213,24.3999548 76.9955174,23.9505532 C78.3405121,24.0105216 79.9287506,25.3399413 79.0145157,26.9554753 C78.4444367,27.7748024 77.1860458,27.3268458 77.1348366,26.2199594 L77.1348366,26.2199594 Z M76.6483491,36.2447957 C74.8710884,36.371235 74.0487288,34.9327162 74.2083811,33.637977 C74.7709293,33.5678934 74.7114362,34.0909912 75.1143322,34.1733574 L76.6483491,34.1733574 C77.6732863,34.5649582 77.749347,35.900158 76.6483491,36.2447957 L76.6483491,36.2447957 Z M75.9517533,42.4583879 C74.8597923,42.6903138 72.8867317,40.9743509 73.5818214,40.1875367 C74.8326815,40.4274103 76.7839029,40.0993904 76.8554452,41.3233235 C76.8818028,41.7994581 76.3094647,42.3839693 75.9517533,42.4583879 L75.9517533,42.4583879 Z M74.8364469,45.1331226 L73.7926828,45.1331226 C73.1608516,44.4438474 72.909324,43.3962068 72.6058342,42.3919169 C73.8935951,41.8608715 76.2816008,43.880289 74.8364469,45.1331226 L74.8364469,45.1331226 Z M73.932755,49.2745541 C73.1857031,49.4804696 72.4522065,48.8403251 71.9099914,48.8085347 C71.4159732,48.7774667 71.2608394,49.1473922 70.7961912,48.9414766 C70.775105,48.2045157 72.2850235,46.9509596 73.4432553,47.2016708 C74.246788,47.380131 75.1888867,48.9313615 73.932755,49.2745541 L73.932755,49.2745541 Z M69.3337165,46.0680515 C69.4828257,45.9452247 69.8443024,46.0239783 70.0988423,46.0001355 C70.6259959,45.2776247 71.2239387,44.6280876 72.6058342,44.7335742 C74.5698578,46.6149921 69.7012179,48.3894784 69.3337165,46.0680515 L69.3337165,46.0680515 Z M70.5198121,40.9895236 C70.9543373,41.2033868 70.9565965,41.7915105 71.2834317,42.1253105 C71.4619109,42.3059381 71.6569577,42.3911944 71.9099914,42.5263039 C72.1539882,42.8803342 72.201432,43.7502371 72.0508167,44.2646647 C69.781044,45.2501693 69.2056935,41.9439603 70.5198121,40.9895236 L70.5198121,40.9895236 Z M70.3767275,36.3127117 C70.8315858,36.0851208 71.0228672,36.6197787 71.5628231,36.7137051 C72.0711498,36.8011289 72.5802295,36.5251298 73.0230386,36.6457891 C73.5147976,36.7772861 73.6420675,37.3025514 73.932755,37.580718 C73.1789254,39.7504177 70.0920646,38.1587266 70.3767275,36.3127117 L70.3767275,36.3127117 Z M74.6956216,37.715105 C74.5781417,37.1031384 73.9101627,36.8582073 74.0020381,36.3791827 C75.4230936,36.3958004 76.922469,36.9131181 76.7153729,38.7186724 C76.4630923,39.5755701 75.0857153,39.7569203 74.6956216,38.8494468 C74.551784,38.5156469 74.7731885,38.1067058 74.6956216,37.715105 L74.6956216,37.715105 Z M76.9955174,30.0991194 C77.6559655,32.0968616 76.2206016,33.9674419 74.5563024,32.9024611 C73.9131751,31.5535335 75.4268589,31.4010838 75.9517533,30.8982163 C76.3448593,30.5246783 76.3185016,29.6092572 76.9955174,30.0991194 L76.9955174,30.0991194 Z M73.7226467,28.6273651 C74.1797642,28.5298261 74.906483,27.6274103 75.5322897,27.6266877 C77.2756619,27.6187401 76.40134,30.170648 74.8364469,30.0991194 C74.5698578,30.0846692 73.8107566,29.7356965 73.5125383,29.5615715 C73.1804316,29.3672161 72.821214,28.993678 72.8159425,28.6938361 C73.0124955,28.5406638 73.4462676,28.6858885 73.7226467,28.6273651 L73.7226467,28.6273651 Z M83.1925844,24.6188756 C82.2339179,25.2734703 81.2797699,24.2041544 81.1027969,23.2800632 C80.8542817,22.9202529 80.1125013,23.0315195 80.060539,22.4795213 C81.6133828,21.3711899 84.369643,22.8711221 83.1925844,24.6188756 L83.1925844,24.6188756 Z M83.9607225,24.3501016 L84.1007947,24.3501016 C84.6964783,24.5350643 85.0451527,24.9599007 85.7711185,25.019869 C86.4428628,25.2770829 87.0957802,25.8709867 86.7478588,26.8904493 C85.2115826,27.8217656 83.6948865,25.9858659 83.9607225,24.3501016 L83.9607225,24.3501016 Z M87.2343463,24.6853466 C87.3699,23.9960713 88.5183418,23.7085121 89.1155315,24.2836306 C89.5621059,24.7120795 89.4408606,25.3984647 89.602019,26.0205464 C89.710462,26.4374351 90.1615548,26.6520208 89.8814104,27.0219463 C88.9084355,27.0067735 86.9737818,26.0053737 87.2343463,24.6853466 L87.2343463,24.6853466 Z M87.860906,37.3805825 C87.8917821,37.8415444 87.4843677,38.3631971 87.1658163,38.4477309 C85.5542325,38.8776247 85.4585917,36.3871303 85.1438057,35.7108602 C85.9789676,34.9262136 87.8142152,36.6833597 87.860906,37.3805825 L87.860906,37.3805825 Z M88.2796165,39.7215173 C88.5959087,38.4744638 90.9349645,38.3126214 91.6918064,39.4534658 C91.6511403,39.7504177 91.362712,39.807496 90.9937044,39.7850982 C90.3166886,40.1405735 90.1713448,41.0783924 89.3226276,41.1224656 C88.5093049,41.1629262 88.1018905,40.411515 88.2796165,39.7215173 L88.2796165,39.7215173 Z M82.9169584,39.4534658 C82.7610715,39.838564 82.6194931,40.2366674 82.2881394,40.4584782 C80.8497632,40.3999548 80.7639125,39.1760217 79.224624,39.1189433 C79.5861008,37.8726123 82.8228238,37.5850531 82.9169584,39.4534658 L82.9169584,39.4534658 Z M83.2633736,42.4583879 C84.7499467,42.1007451 85.0632266,44.1396704 83.542765,44.5977422 C82.952353,44.7747573 81.1487346,44.8072703 81.1027969,44.2646647 C81.0726739,43.8636713 81.2601899,44.1042673 81.6615797,43.7972003 C82.1699064,43.406322 82.5554816,42.6317905 83.2633736,42.4583879 L83.2633736,42.4583879 Z M86.7478588,42.8593814 C85.7161439,43.7863626 84.4253707,42.7257169 84.1007947,41.7915105 C83.7513672,41.7127568 83.3499774,41.8334161 83.1925844,41.456988 C83.9622286,39.937548 87.54612,40.8298487 86.7478588,42.8593814 L86.7478588,42.8593814 Z M87.1658163,44.5312712 C87.1447302,44.7603071 87.3412831,45.0196884 87.3028762,45.2660646 C87.2403709,45.6916234 86.5912189,46.4596523 86.1898291,46.4690449 C85.1249788,46.4914428 84.7559713,44.5717318 85.6325524,43.7972003 C86.5106397,43.7263942 86.8194011,43.1072025 87.6523038,42.9937683 C87.8978067,43.5414315 87.2132601,43.9561526 87.1658163,44.5312712 L87.1658163,44.5312712 Z M88.2103335,45.667058 L88.5567487,45.667058 C89.3685652,46.7674419 88.2028027,48.9653195 87.1658163,48.9414766 C86.7666857,48.933529 86.2545937,48.4465568 86.1898291,48.1380447 C85.9074254,46.8064574 87.9098559,46.4986679 88.2103335,45.667058 L88.2103335,45.667058 Z M90.6465361,49.807767 C90.6103885,50.2022578 90.1931841,50.2174306 89.8814104,50.5468955 C89.4574283,50.9883495 89.1155315,51.7072477 88.6267848,51.8141793 C86.8103642,52.2137277 86.9835718,49.9118085 88.4151703,49.541883 C89.1117661,49.3663129 90.1833941,49.3504177 90.6465361,49.807767 L90.6465361,49.807767 Z M84.1007947,47.8035222 C82.8122807,48.0954166 81.5546429,46.4170242 81.870935,45.3997291 C82.421434,45.8982615 83.4117297,45.5095507 84.1693247,45.667058 C84.6204175,45.7602619 85.2123357,46.3230978 85.2123357,46.6706254 C85.2123357,47.0484985 84.4133215,47.7356062 84.1007947,47.8035222 L84.1007947,47.8035222 Z M81.801652,49.0758636 C82.7204054,49.7347934 82.4169155,51.5981486 81.5930498,52.2816437 C81.2052154,52.1862723 81.1750923,51.7462633 81.1027969,51.3452698 C80.7744556,50.6906751 79.7186422,50.4739219 79.7111115,49.6769925 C79.7020745,48.7969745 81.0899946,48.5650485 81.801652,49.0758636 L81.801652,49.0758636 Z M104.532515,17 C97.1809814,17 93.4796102,21.7981937 93.4796102,21.7981937 L93.2469095,21.7981937 C93.2469095,21.7981937 89.5477975,17 82.1917456,17 C74.8364469,17 70.5469228,21.9918266 59,21.9918266 L59,65 C70.5469228,65 74.8364469,60.0052834 82.1917456,60.0052834 C86.5415158,60.0052834 89.611809,62.0080831 91.3981066,63.6460149 C91.3981066,63.5455859 91.4011189,63.448047 91.412415,63.3743509 C91.579598,62.0080831 91.5442034,60.1346128 91.6232764,58.6289004 C90.5320685,57.2048318 89.1946045,56.0119666 87.9294359,54.7555204 C86.6958965,53.0222172 85.2590265,51.4818243 83.9607225,49.807767 C83.1142644,49.3973809 82.3702248,48.8880108 81.5930498,48.4075412 C80.8678371,48.4703996 80.287215,48.3150598 79.7826537,48.4725672 C79.2961663,48.6250169 79.0506633,49.2803342 78.5272751,49.0758636 C78.2908091,48.6878754 79.0702433,48.5455408 78.8744434,48.2074057 C78.4798313,48.0975841 78.319426,47.7645067 77.7613963,47.8035222 C77.5256833,48.7218334 75.4524635,49.4327839 75.1858744,48.2074057 C74.9900745,47.315105 75.7122749,47.0651163 76.2281324,46.6041544 C76.1626147,46.1345225 75.4984012,46.2335064 75.5322897,45.667058 C76.1339978,44.9770603 76.2748231,46.1670354 76.784656,46.201716 C77.0474797,46.0066381 76.9217159,45.4401897 77.414981,45.4662 C77.905987,45.6070896 77.6928663,46.4321969 77.7613963,46.8021224 C78.5799905,47.3541206 79.5303731,48.1300971 80.9672432,47.8714382 C80.2646227,46.8266877 79.6711984,45.631655 78.8744434,44.6627681 C78.2855375,43.94676 77.3140688,43.5782795 77.0655535,42.7257169 C77.5761394,42.5617069 77.7124463,43.2943328 78.319426,43.2632648 C78.5272751,42.5039061 77.9745169,42.4778957 77.7613963,42.1253105 C78.2817722,41.4960036 77.6439163,40.8255137 77.6913601,40.3190336 C77.9029747,40.1254008 78.1093176,40.6513886 78.319426,40.4584782 C78.7554573,40.2135471 79.1877233,39.6586588 79.8511837,39.7215173 C80.3730658,39.7684805 81.1585246,40.4274103 81.1743392,40.7893881 C81.2247953,41.9114473 79.53941,41.6405058 78.8051604,41.9244525 C78.8157034,42.7387221 79.3089686,43.0941973 79.1545879,44.0638067 C79.7728637,44.893249 80.4363242,45.7132987 81.0350201,46.6041544 C81.2835353,46.9740799 81.4092991,47.4769474 81.7308628,47.8035222 C82.5863578,48.6784827 83.9396363,48.8359901 84.7258483,49.807767 C85.0918435,49.8012644 84.9269197,49.2882818 85.3539141,49.3403026 C85.4834433,49.4869722 85.4013579,49.8294423 85.4224441,50.0772635 C86.9316095,51.8358546 88.3202827,53.7266652 89.9514465,55.2880108 C90.4801062,55.7981034 90.9048414,56.5719124 91.6918064,56.7568751 C92.0608139,54.5980131 91.4530811,51.6776247 91.7618425,49.4089411 C91.8507056,48.7644615 92.1594669,47.5130729 91.9696917,46.8021224 C91.8491994,46.3426056 91.0712713,45.9221043 90.7858553,45.600587 C90.2835532,45.0305261 89.8701142,44.3636487 89.1840615,43.9966132 C89.0116069,44.1953037 88.0996312,44.2177015 87.9294359,43.9966132 C88.0228174,43.4843531 88.9197316,43.7437345 89.1155315,43.3268458 C88.2291604,41.9728607 87.113854,40.8370738 85.4224441,40.2525627 C85.0105112,40.3385414 84.1196216,40.6398284 83.9607225,40.1875367 C83.9870802,39.8790246 84.6106275,40.1449086 84.5880352,39.7850982 C84.1128439,38.9440957 83.1925844,38.5394897 82.6368139,37.781576 C81.2134992,37.2498081 77.8186301,37.8451569 78.0415407,36.3127117 C78.4971521,36.3632874 78.7419019,36.702145 79.0837987,36.7801761 C80.1207851,37.010657 81.0869823,36.842312 81.9409711,36.9795891 C84.1218809,37.3292843 84.7341321,39.6788891 86.8849187,40.1210657 C87.2200378,40.1969293 87.1793717,39.9129826 87.5114784,39.9881237 C87.7961414,40.8789795 88.3391096,41.2734703 88.903917,41.9244525 C89.2488261,42.3182208 89.6291297,42.6838112 89.9514465,43.0587943 C90.5478831,43.7603522 91.2309236,44.9365997 92.1767877,44.9987356 C92.2505892,43.7437345 92.0050863,41.5198465 92.1082577,39.8544592 C92.1195539,39.6940619 92.2144415,39.3949424 92.1767877,39.2511628 C92.0276786,38.6370287 90.0403095,37.5857756 89.4626998,37.1811696 C89.1456546,36.9571912 88.8414116,36.5952134 88.5567487,36.4442086 C88.421948,36.3762926 88.2216296,36.4312034 88.1395443,36.3791827 C87.5212684,35.9868593 86.9218195,35.4269135 86.3299013,35.1082863 C84.6731329,34.7369158 83.6180726,33.7875367 82.4274586,32.9725446 C83.1278198,33.9399865 82.1179441,34.6162565 82.0802903,35.3748928 C82.0607103,35.7347031 82.3988417,35.86042 82.2203626,36.2447957 C80.3971642,36.4442086 79.4415101,32.121427 82.2881394,32.9024611 C82.3212748,32.1821179 81.4040276,32.3670806 81.4514714,31.6358998 C82.0501673,31.5051253 81.9748596,32.020998 82.2203626,32.2370287 C84.2371016,33.7290133 86.8126234,34.6913976 88.9739531,36.0453827 C89.2156907,35.895823 88.6892902,35.5699706 88.9739531,35.3748928 C89.4175152,35.5107248 89.5681305,35.9203883 89.6720551,36.3791827 C90.388984,36.9600813 91.0712713,37.5771054 92.1767877,37.781576 C92.5397706,37.2707609 92.1685039,36.6746895 92.1082577,36.1111312 C92.0683447,35.7151953 92.2151946,35.2484534 92.1082577,34.8402348 C91.9071863,34.0758185 90.773053,33.3988259 91.1330236,32.7030481 C91.8303725,32.7500113 91.6639426,33.6199142 92.3183661,33.705893 C92.5186845,32.6914879 92.514166,31.1380899 92.5977575,30.2335064 C91.9659263,30.3801761 92.1971208,31.3620682 91.3423789,31.3006548 C91.1157028,31.1417024 91.2309236,30.6496726 91.2030597,30.2970874 C90.9176437,29.8202303 90.2195417,29.3072477 90.3686509,28.5587266 C90.6081292,27.3608038 92.1624793,27.8297133 92.5247091,28.6273651 C92.7973228,28.4828629 92.5872144,27.881734 92.9449258,27.8253782 C93.084245,29.0868819 93.3681548,30.336103 93.4336725,31.8331452 C93.6799285,32.056401 93.8968146,31.214676 94.1295152,31.6358998 C94.1483421,32.1300971 93.6678793,32.3504629 93.5714855,32.9725446 C93.3915002,34.1365094 93.9050984,35.7672161 93.7815939,37.0467826 C94.2891675,36.8827726 94.0986391,36.3553398 94.1987983,35.9781892 C94.4141782,35.1733123 94.9872694,34.3402574 95.0339602,33.438564 C95.3818815,32.967487 95.6597668,32.4321066 95.662026,31.6358998 C95.9557259,31.4466019 95.9015044,30.9256717 96.4279049,30.9675773 C96.6206925,31.6214495 96.1086004,32.121427 95.9414174,32.7030481 C95.8646036,32.9725446 95.947442,33.2853917 95.8713813,33.572951 C95.6733222,34.2969068 95.31787,34.8279521 95.1740324,35.7108602 C95.0196517,36.6580718 94.2816367,37.2707609 94.4066474,38.3162339 C94.9285294,38.3285166 95.1484278,37.9152405 95.5234599,37.648634 C95.858579,37.4065929 96.3849795,37.2201851 96.4279049,36.7137051 C96.4580279,36.368345 96.0784774,35.9117182 96.0784774,35.4442538 C96.0784774,34.8322872 96.2095127,34.2658388 96.7080494,33.9103635 C97.1403153,33.9529916 97.0627484,34.3727704 97.2638199,34.6408219 C97.7066289,35.223888 98.593,35.7556559 98.4499154,36.5106796 C98.3422255,37.0547302 97.0235884,37.5055769 96.3578688,37.9817114 C95.5678914,38.5481599 94.1987983,39.0784827 93.9216661,39.9209302 C94.4111659,40.5574622 93.7778285,41.9128923 94.1987983,42.6614134 C94.9481094,42.3333935 95.35703,41.6773538 95.8713813,41.1224656 C96.5981002,40.7734929 97.2525237,40.1694739 97.6109881,39.4534658 C98.1464256,38.3812599 98.7586768,37.2498081 99.212782,36.1111312 C100.03966,34.4544141 101.483308,33.3865432 101.16325,30.6316098 C100.590912,30.4011289 100.154881,30.0405961 99.8400948,29.5615715 C99.4869018,30.0926168 99.596851,31.0665613 98.7262945,31.0990743 C98.3723485,30.9300068 98.5553461,30.6149921 98.3783732,30.3635584 C97.9174903,29.7226914 96.8707139,29.4047866 97.1245007,28.1577331 C97.4385336,27.713389 97.9754772,27.4778505 98.5869754,27.6266877 C99.3159535,27.7979228 99.5591972,28.8246105 99.8400948,29.3607135 C100.344656,28.989343 100.584134,28.5262136 101.232533,28.4937006 C101.685885,28.4698578 102.048115,28.757417 102.559454,28.6273651 C102.884783,28.5457214 103.007535,28.2343193 103.46164,28.2913976 C103.644638,29.2631745 102.71986,30.2255588 101.78981,30.5680289 L101.78981,31.9025062 C102.368926,31.787627 102.39453,31.1460375 103.042929,31.0990743 C102.856919,31.9964326 102.029288,32.4675096 101.511925,33.1705125 C100.880093,34.0339128 100.831897,35.2159404 100.048697,36.0453827 C100.03966,36.2382931 100.087104,36.4817792 99.9809201,36.5793181 C99.4319273,37.6125085 98.7842814,38.5510499 98.4499154,39.7850982 C99.6887264,39.7930458 100.529913,38.8451118 101.442642,38.3162339 C101.457703,38.0026643 101.084177,37.5272522 101.442642,37.3141115 C101.875661,37.2996613 101.924611,37.651524 102.34784,37.648634 C102.579787,37.3805825 102.891561,37.1891172 103.042929,36.8437571 C103.09941,35.8582524 103.738019,34.8944231 104.855585,34.7072928 C105.052138,34.9804019 104.802116,35.2954166 104.855585,35.6422217 C105.079248,35.8257394 105.540884,35.4608715 105.621463,35.8423572 C105.573267,36.1523143 105.167358,36.1241364 105.205012,36.5106796 C105.631253,37.2592007 105.158321,38.221585 104.43838,38.2504854 C103.816339,38.2736058 103.289938,37.1652743 102.83508,37.9152405 C102.821525,38.4730187 103.515861,38.6016256 103.531676,39.3176338 C103.572342,41.0574396 100.843193,41.4100248 101.302569,39.3176338 C100.152622,39.8205012 98.8761568,40.7749379 97.4731751,41.2568526 C96.6033717,42.2907654 96.0769712,43.6606457 95.4511646,44.9322646 C95.4074861,46.1554753 95.2546116,48.15683 95.1740324,49.3403026 C95.8367398,49.0238429 96.0332928,48.2854369 96.4279049,47.7399413 C97.1915245,46.677128 98.0613279,45.7739896 98.8656137,44.8650711 C98.7180107,44.4727478 98.2601401,44.3788214 98.308337,43.7972003 C98.770726,43.4482276 99.5238026,43.7791375 99.9108839,43.9308648 C101.411766,42.4988485 103.152125,41.2929781 104.226766,39.4534658 C104.390936,39.5206593 104.452689,39.6825017 104.717019,39.6514337 C105.573267,39.0734252 106.681042,38.7316776 107.710498,38.3162339 C108.68272,38.8776247 109.839445,39.2591104 109.801791,40.7893881 C109.896679,41.0755024 110.473536,40.9020998 110.498387,41.2568526 C110.200169,41.8608715 109.514869,41.7944005 108.687238,41.7915105 C107.797102,41.2799729 106.896422,40.3428765 107.43186,39.0510273 C106.147111,39.2439377 105.56423,40.1095055 104.43838,40.4584782 C103.896165,41.049492 103.257556,41.5473019 102.83508,42.2589749 C102.980424,42.6108377 103.661205,42.4482727 103.531676,43.0587943 C103.142335,43.2914428 102.55343,42.9764281 102.210027,43.0587943 C101.606812,43.2061865 100.684294,44.2928426 100.67601,44.5312712 C100.65643,45.0225785 101.259644,45.2010386 101.232533,45.667058 C101.215213,46.0066381 100.850723,46.3917363 100.467408,46.4690449 C99.7549971,46.609212 99.5170249,46.0759991 99.074969,46.1345225 C98.6464684,46.1930458 98.0296987,47.3570106 97.7518135,47.7399413 C96.9189108,48.8764507 96.3729303,49.9797245 95.8713813,51.2816889 C95.9225905,51.9507338 95.1424032,52.9990969 95.4511646,53.6862046 C96.409078,53.4860691 97.1011553,52.4608264 98.1682648,52.1501468 C98.5869754,51.6357191 99.2782996,51.3857304 99.7723179,50.9457214 C99.9108839,49.8764055 99.7828609,48.5549334 100.189522,47.7399413 C101.615849,47.8266426 101.530752,45.9156017 102.83508,45.667058 C102.820019,46.3187627 102.299643,46.7566042 101.931388,47.2724769 C101.761946,47.5051253 101.580455,47.8194175 101.373359,48.0744638 C101.14593,48.3490178 100.85976,48.5325356 100.746046,48.8085347 C100.563801,49.2543238 100.592418,49.8149921 100.535184,50.4103409 C102.55117,50.1039964 104.488836,48.867058 106.597451,48.6755927 C107.04026,48.6315195 108.001185,48.5404832 108.197738,49.0065026 C107.455205,49.067916 106.829398,49.3713705 106.248023,49.4754121 C104.422566,49.8012644 103.101669,50.3749379 101.649738,50.9457214 C100.06903,51.5692481 99.1096105,52.2917589 97.8203434,53.1522691 C97.2314376,53.5460375 96.4143495,53.988214 96.2177965,54.288056 C95.9158128,54.7475728 95.8307152,56.0769925 95.8713813,56.6253782 C96.0129597,58.5378641 95.691396,61.2537819 95.7712221,63.2609167 C97.6004451,61.7096862 100.523135,60.0052834 104.532515,60.0052834 C111.888567,60.0052834 116.181103,65 127.727273,65 L127.727273,21.9918266 C116.181103,21.9918266 111.888567,17 104.532515,17 L104.532515,17 Z" id="Fill-18"></path>
            </g>
        </g>
    </g>
</svg>